<svg width="100%" height="100%" viewBox="0 0 400 300" xmlns="http://www.w3.org/2000/svg">
  <rect width="100%" height="100%" fill="#e9ecef" />
  
  <!-- Gear -->
  <circle cx="150" cy="150" r="40" fill="#adb5bd" />
  <circle cx="150" cy="150" r="15" fill="#e9ecef" />
  
  <!-- Gear teeth -->
  <path d="M150,110 L150,100" stroke="#6c757d" stroke-width="8" stroke-linecap="round" />
  <path d="M180,120 L190,110" stroke="#6c757d" stroke-width="8" stroke-linecap="round" />
  <path d="M190,150 L200,150" stroke="#6c757d" stroke-width="8" stroke-linecap="round" />
  <path d="M180,180 L190,190" stroke="#6c757d" stroke-width="8" stroke-linecap="round" />
  <path d="M150,190 L150,200" stroke="#6c757d" stroke-width="8" stroke-linecap="round" />
  <path d="M120,180 L110,190" stroke="#6c757d" stroke-width="8" stroke-linecap="round" />
  <path d="M110,150 L100,150" stroke="#6c757d" stroke-width="8" stroke-linecap="round" />
  <path d="M120,120 L110,110" stroke="#6c757d" stroke-width="8" stroke-linecap="round" />
  
  <!-- Sprocket -->
  <circle cx="250" cy="150" r="35" fill="#adb5bd" />
  <circle cx="250" cy="150" r="15" fill="#e9ecef" />
  
  <!-- Sprocket teeth -->
  <path d="M250,115 L250,105" stroke="#6c757d" stroke-width="3" />
  <path d="M275,125 L285,115" stroke="#6c757d" stroke-width="3" />
  <path d="M285,150 L295,150" stroke="#6c757d" stroke-width="3" />
  <path d="M275,175 L285,185" stroke="#6c757d" stroke-width="3" />
  <path d="M250,185 L250,195" stroke="#6c757d" stroke-width="3" />
  <path d="M225,175 L215,185" stroke="#6c757d" stroke-width="3" />
  <path d="M215,150 L205,150" stroke="#6c757d" stroke-width="3" />
  <path d="M225,125 L215,115" stroke="#6c757d" stroke-width="3" />
  
  <text x="200" y="240" font-family="Arial" font-size="20" fill="#495057" text-anchor="middle">Krumpliaračiai ir žvaigždutės</text>
  <text x="200" y="270" font-family="Arial" font-size="14" fill="#6c757d" text-anchor="middle">Produkto pavyzdys</text>
</svg> 